<?xml version="1.0" standalone="no"?>
<!DOCTYPE svg PUBLIC "-//W3C//DTD SVG 20010904//EN"
 "http://www.w3.org/TR/2001/REC-SVG-20010904/DTD/svg10.dtd">
<svg version="1.0" xmlns="http://www.w3.org/2000/svg" viewBox="0 0 500.000000 500.000000"
 preserveAspectRatio="xMidYMid meet">

<g transform="translate(0.000000,500.000000) scale(0.100000,-0.100000)"
fill="#000000" stroke="none">
<path d="M2365 4654 c-201 -20 -359 -48 -430 -76 -16 -7 -34 -13 -40 -13 -25
-1 -145 -48 -145 -56 0 -6 -4 -8 -9 -4 -13 7 -62 -16 -55 -26 3 -5 -2 -6 -10
-3 -19 7 -128 -45 -120 -57 3 -5 -3 -6 -12 -2 -10 3 -22 0 -28 -8 -6 -8 -18
-14 -26 -14 -8 0 -14 -5 -13 -12 2 -7 -3 -10 -10 -7 -7 2 -23 -5 -35 -17 -13
-11 -29 -22 -37 -23 -19 -3 -46 -27 -40 -36 3 -5 -3 -6 -12 -4 -11 3 -35 -10
-60 -33 -23 -21 -47 -39 -53 -41 -7 -2 -21 -13 -30 -25 -14 -17 -16 -26 -7
-37 9 -12 9 -13 -3 -2 -17 15 -34 16 -24 1 4 -7 1 -10 -7 -7 -8 3 -22 -4 -31
-15 -10 -11 -18 -16 -18 -12 0 5 -13 -7 -30 -25 -35 -40 -40 -63 -7 -32 26 24
37 28 37 11 0 -5 -4 -8 -9 -5 -4 3 -16 -3 -26 -14 -12 -13 -22 -17 -29 -11
-12 10 -60 -22 -49 -33 4 -3 -1 -6 -11 -6 -9 0 -15 -4 -12 -9 3 -5 -5 -16 -19
-25 -14 -9 -25 -23 -25 -30 0 -8 -9 -24 -21 -37 -11 -13 -17 -17 -13 -9 4 8
-3 4 -16 -9 -19 -19 -20 -25 -9 -33 11 -8 10 -9 -4 -4 -12 4 -29 -9 -58 -47
-23 -29 -47 -63 -53 -77 -6 -14 -14 -27 -17 -30 -10 -7 -78 -110 -95 -143 -8
-15 -12 -33 -8 -39 4 -6 3 -8 -4 -4 -7 4 -30 -33 -60 -96 -43 -89 -65 -145
-113 -278 -26 -75 -58 -224 -81 -380 -17 -120 -14 -420 6 -560 65 -454 273
-872 599 -1201 161 -163 297 -267 482 -370 79 -44 98 -54 205 -102 236 -106
538 -167 820 -167 288 0 594 67 848 186 41 19 75 34 77 34 7 0 200 113 243
141 261 178 521 457 667 714 62 109 135 260 135 279 0 7 4 16 9 22 19 20 94
277 112 384 19 108 39 306 39 385 1 236 -76 626 -151 767 -5 10 -9 23 -9 28 0
23 -132 279 -190 369 -341 525 -877 876 -1478 966 -98 15 -354 26 -427 19z
m300 -164 c440 -42 873 -247 1189 -565 354 -355 550 -774 598 -1278 29 -313
-51 -716 -203 -1015 -322 -631 -930 -1048 -1612 -1104 -160 -13 -355 -3 -512
27 -180 34 -394 111 -549 198 -39 22 -88 49 -109 60 -83 46 -258 186 -362 291
-285 287 -465 619 -551 1021 -23 104 -27 149 -30 345 -2 164 1 251 12 319 20
129 72 331 105 409 5 12 13 32 18 45 5 12 23 53 41 91 18 38 33 74 34 80 1 6
9 22 18 36 54 85 68 112 62 122 -4 6 -3 8 4 4 10 -6 28 30 24 47 -1 5 2 6 7 2
6 -3 28 20 49 52 22 32 49 67 61 77 11 11 21 27 21 38 0 10 5 17 12 15 6 -1
17 8 23 20 7 13 14 20 17 17 4 -3 9 4 13 15 3 12 13 21 21 21 8 0 13 4 10 9
-3 5 1 12 10 15 10 4 14 12 10 22 -6 15 -4 15 11 3 10 -7 15 -10 11 -5 -4 5 3
17 15 28 12 11 16 16 8 12 -9 -5 -12 -3 -7 4 4 7 12 12 17 12 11 0 27 12 73
54 17 16 33 30 36 30 3 1 4 5 2 9 -1 5 2 6 7 3 5 -4 17 4 25 16 9 12 16 19 16
15 0 -7 42 22 105 70 6 5 23 14 38 20 15 7 30 20 33 28 4 8 10 13 14 10 5 -3
16 3 26 12 10 10 19 17 21 15 2 -2 47 18 101 43 149 71 202 91 342 128 214 58
452 78 675 57z m-1265 -184 c-7 -7 -13 -7 -20 0 -6 6 -3 10 10 10 13 0 16 -4
10 -10z m10 -112 c0 -8 -19 -13 -24 -6 -3 5 1 9 9 9 8 0 15 -2 15 -3z m-194
-83 c-11 -18 27 -21 41 -4 13 17 13 16 4 -3 -5 -11 -17 -27 -26 -34 -13 -11
-14 -10 -9 5 5 12 4 16 -3 12 -12 -7 -26 17 -16 27 9 9 15 7 9 -3z m-196 -115
c0 -2 -7 -7 -16 -10 -8 -3 -12 -2 -9 4 6 10 25 14 25 6z m-64 -62 c1 -9 0 -13
-4 -10 -3 4 -7 14 -8 22 -1 9 0 13 4 10 3 -4 7 -14 8 -22z m125 13 c-6 -8 -7
-18 -3 -22 4 -5 1 -5 -6 -1 -10 6 -10 11 -1 22 6 8 14 14 16 14 3 0 0 -6 -6
-13z m-213 -124 c-12 -15 -22 -17 -13 -3 9 14 -8 12 -25 -2 -12 -11 -12 -10
-1 4 7 9 21 16 31 15 14 -1 16 -4 8 -14z"/>
<path d="M2275 4324 c-246 -38 -461 -106 -628 -201 -33 -18 -61 -33 -64 -33
-2 0 -50 -31 -106 -70 -334 -228 -592 -569 -716 -948 -51 -154 -68 -247 -83
-434 -68 -862 490 -1662 1328 -1901 412 -118 875 -76 1259 115 263 131 483
308 543 436 l27 57 3 600 3 600 -29 35 c-28 33 -33 35 -106 38 l-76 4 0 -51 0
-51 55 0 55 0 0 -549 c0 -480 -2 -550 -15 -555 -20 -7 -910 -7 -930 0 -13 5
-15 70 -15 555 l0 548 58 3 57 3 3 48 3 47 -71 0 c-68 0 -74 -2 -106 -34 l-34
-34 0 -584 0 -584 30 -31 c41 -42 80 -45 552 -42 219 2 400 1 403 -2 6 -7 -99
-102 -179 -163 -211 -161 -469 -273 -751 -327 -92 -17 -438 -18 -520 -1 -274
58 -473 138 -667 269 -378 255 -631 634 -729 1094 -19 89 -23 135 -23 319 0
195 2 226 27 340 76 359 293 716 576 950 117 97 143 115 257 181 334 192 755
257 1164 178 178 -34 473 -161 605 -261 160 -121 311 -269 408 -398 126 -169
244 -419 288 -610 26 -109 39 -236 39 -373 0 -289 -55 -521 -186 -778 l-64
-126 0 -107 0 -108 23 29 c101 122 216 345 278 537 190 587 62 1239 -337 1716
-227 273 -517 470 -844 575 -196 63 -279 76 -520 80 -118 2 -228 1 -245 -1z"/>
<path d="M2140 3790 c-179 -76 -343 -146 -365 -155 -22 -9 -55 -23 -72 -31
-61 -26 -108 -46 -128 -54 -11 -4 -40 -17 -65 -28 -25 -10 -73 -30 -107 -43
-34 -13 -60 -26 -58 -29 2 -3 -7 -6 -18 -7 -12 0 -48 -13 -79 -27 -65 -29 -78
-59 -32 -76 14 -6 50 -21 80 -35 30 -14 58 -25 62 -25 5 0 26 -9 48 -19 51
-25 155 -71 160 -71 2 0 4 7 4 15 0 23 38 41 130 60 47 10 115 26 153 36 57
15 67 15 67 3 0 -8 7 -14 15 -14 12 0 13 -4 4 -18 -13 -21 -110 -44 -198 -47
-50 -2 -53 -1 -35 12 18 13 17 14 -16 11 -41 -4 -48 -29 -10 -39 25 -6 25 -6
-5 -10 -41 -5 -46 -35 -8 -50 15 -7 42 -18 58 -25 17 -7 55 -22 85 -34 30 -12
78 -32 108 -46 29 -13 55 -24 57 -24 3 0 24 -9 48 -19 41 -19 128 -56 340
-145 60 -25 114 -46 121 -46 12 0 152 57 414 169 79 33 145 61 147 61 3 0 34
14 70 30 36 17 67 30 70 30 15 0 581 244 587 253 16 25 6 38 -39 58 -64 28
-337 142 -443 186 -108 44 -246 101 -285 118 -159 69 -519 215 -528 214 -7 0
-158 -63 -337 -139z m417 -325 c40 -20 59 -56 44 -84 -7 -11 -16 -22 -21 -22
-6 -1 -14 -2 -19 -3 -5 0 -13 -4 -17 -8 -13 -14 -108 -8 -138 7 -18 10 -33 12
-40 6 -13 -11 -80 -29 -145 -41 -48 -8 -224 -47 -253 -56 -10 -3 -18 -1 -18 4
0 5 21 13 48 18 31 5 39 9 24 12 -12 2 -20 7 -17 12 3 5 0 12 -6 16 -8 4 -9 3
-5 -4 4 -7 1 -12 -6 -12 -9 0 -9 -3 2 -10 12 -8 9 -10 -11 -10 -15 0 -32 6
-38 14 -15 17 -4 22 114 46 214 44 297 68 312 90 8 12 25 25 37 30 34 14 120
11 153 -5z m-877 -229 c0 -3 -4 -8 -10 -11 -5 -3 -10 -1 -10 4 0 6 5 11 10 11
6 0 10 -2 10 -4z"/>
<path d="M2573 3390 c-11 -16 -10 -18 1 -14 15 6 30 34 18 34 -4 0 -13 -9 -19
-20z"/>
<path d="M2158 3353 c7 -3 16 -2 19 1 4 3 -2 6 -13 5 -11 0 -14 -3 -6 -6z"/>
<path d="M2073 3342 c-6 -4 12 -7 40 -8 38 -1 45 1 27 6 -34 11 -53 11 -67 2z"/>
<path d="M2178 3333 c7 -3 16 -2 19 1 4 3 -2 6 -13 5 -11 0 -14 -3 -6 -6z"/>
<path d="M1748 3253 c7 -3 16 -2 19 1 4 3 -2 6 -13 5 -11 0 -14 -3 -6 -6z"/>
<path d="M1610 3141 c0 -6 -8 -11 -17 -12 -10 0 -13 -3 -6 -5 18 -8 49 11 34
20 -6 4 -11 2 -11 -3z"/>
<path d="M1599 3111 c-25 -6 -26 -9 -28 -81 -1 -41 -6 -77 -10 -80 -5 -3 -14
-16 -20 -29 -11 -19 -10 -30 4 -62 17 -36 17 -44 1 -128 -9 -49 -16 -96 -16
-104 0 -24 56 -42 98 -31 37 9 37 9 36 59 -1 28 -6 79 -12 115 -8 52 -7 68 4
81 20 22 17 59 -6 94 -12 18 -20 47 -20 73 0 24 -4 41 -9 38 -5 -3 -11 1 -14
9 -4 8 -1 12 7 9 7 -3 12 5 12 21 0 14 0 24 0 24 -1 -1 -13 -4 -27 -8z"/>
<path d="M1730 2809 l0 -250 23 7 c34 10 45 22 52 57 15 73 18 76 127 97 154
31 343 -44 516 -205 62 -57 130 -140 155 -189 14 -26 15 -21 10 71 -12 209 51
293 219 293 63 0 72 3 98 29 27 27 66 41 115 41 14 0 30 13 46 38 22 33 78 71
132 86 14 5 17 18 17 85 0 44 -3 82 -7 84 -7 4 -179 -65 -258 -103 -11 -5 -69
-30 -130 -56 -60 -25 -128 -54 -151 -64 -22 -11 -65 -29 -95 -40 -30 -12 -69
-28 -86 -37 -31 -14 -36 -14 -78 6 -25 11 -47 21 -50 21 -2 0 -28 11 -57 24
-113 51 -148 66 -303 131 -88 37 -189 80 -224 96 -35 16 -65 29 -67 29 -2 0
-4 -113 -4 -251z"/>
<path d="M3211 2806 c-38 -14 -88 -68 -93 -100 -3 -18 -11 -21 -63 -24 -42 -2
-64 -8 -72 -19 -16 -21 -18 -196 -3 -224 10 -18 24 -19 279 -19 233 0 270 2
282 16 8 9 15 52 17 105 6 121 -5 139 -88 139 -50 0 -60 3 -60 18 0 28 -37 80
-67 96 -43 22 -94 27 -132 12z m74 -88 c46 -21 45 -93 -1 -104 -14 -4 -36 -1
-50 6 -32 18 -34 72 -2 94 27 19 21 19 53 4z"/>
<path d="M1932 2653 c-34 -4 -40 -14 -72 -99 -9 -25 -23 -35 -79 -57 -38 -15
-71 -27 -74 -27 -4 0 -27 13 -53 30 -37 23 -51 27 -66 19 -32 -17 -168 -151
-168 -165 0 -7 13 -36 29 -65 l28 -51 -19 -39 c-10 -22 -23 -50 -28 -63 -7
-19 -21 -27 -64 -36 -30 -6 -60 -18 -68 -27 -9 -11 -13 -49 -13 -125 0 -116 2
-122 55 -134 67 -15 81 -26 109 -88 l27 -61 -28 -48 c-15 -26 -28 -54 -28 -62
0 -21 157 -175 178 -175 10 0 22 4 28 9 5 5 26 18 46 30 l37 20 75 -34 c74
-34 75 -34 92 -89 l17 -55 65 -7 c36 -4 95 -3 131 2 l65 9 14 55 15 55 70 29
71 29 51 -26 c27 -15 57 -27 66 -27 17 0 179 153 179 170 0 6 -13 34 -29 61
l-29 51 24 54 c23 51 24 66 24 245 0 189 0 190 -30 255 -74 164 -243 332 -412
409 -56 25 -165 38 -236 28z m218 -433 c138 -70 207 -220 165 -355 -45 -142
-208 -237 -352 -205 -75 16 -106 32 -164 87 -59 55 -89 127 -89 213 0 116 89
232 209 274 63 22 174 15 231 -14z"/>
<path d="M3484 2188 c-54 -36 -195 -172 -265 -256 l-45 -54 -63 62 -63 61 -34
-23 c-18 -13 -36 -29 -38 -35 -3 -7 17 -36 43 -65 27 -29 71 -79 97 -111 34
-40 55 -57 69 -55 13 2 45 40 87 103 97 144 154 220 226 303 38 44 61 79 58
88 -8 20 -17 18 -72 -18z"/>
</g>
</svg>
